<?xml version="1.0" encoding="UTF-8"?>
<svg version="1.1" xmlns="http://www.w3.org/2000/svg" width="288" height="311">
<path d="M0 0 C3.375 -0.125 3.375 -0.125 7 0 C7.99 0.99 7.99 0.99 9 2 C10.75023585 2.91170949 12.52231555 3.7817404 14.3046875 4.62890625 C20.55620317 7.70441374 26.46539204 11.19288849 32.38500977 14.86026001 C35.42880965 16.74469757 38.48351744 18.61124731 41.5390625 20.4765625 C42.16101501 20.85635757 42.78296753 21.23615265 43.42376709 21.62745667 C49.72241969 25.46117213 56.10124998 29.14823407 62.5 32.8125 C70.77095002 37.5509945 78.99357966 42.35164495 87.14746094 47.28881836 C92.20554725 50.34419246 97.29255064 53.34475449 102.40234375 56.3125 C103.04915604 56.68883575 103.69596832 57.06517151 104.36238098 57.45291138 C108.25223252 59.71623624 108.25223252 59.71623624 112.14810181 61.96917725 C116.12923796 64.26419054 120.07576945 66.60831667 124 69 C124.79986328 69.46825195 125.59972656 69.93650391 126.42382812 70.41894531 C132.62328703 74.44712453 135.4516842 80.18768457 138 87 C138.78289319 91.46316265 138.82310656 95.79731306 138.77636719 100.32080078 C138.79213806 102.23054184 138.79213806 102.23054184 138.80822754 104.17886353 C138.83530335 107.63361731 138.82509506 111.08728188 138.80595303 114.54205179 C138.79062324 118.17819785 138.80488788 121.81425871 138.81427002 125.45040894 C138.82514323 131.55125459 138.81091072 137.65166243 138.78222656 143.75244141 C138.74955095 150.78287784 138.76018169 157.81227063 138.793185 164.842682 C138.82050077 170.90681452 138.82421348 176.97063477 138.80855298 183.03480899 C138.79925028 186.64458674 138.79780807 190.25387541 138.81777191 193.86362076 C138.83848565 197.88902881 138.80970056 201.91266487 138.77636719 205.93798828 C138.78851257 207.11748047 138.80065796 208.29697266 138.81317139 209.51220703 C138.69349165 217.34332236 137.04782046 222.90172164 132 229 C128.85765648 231.71838995 125.56146155 233.86502505 122 236 C120.94167969 236.65097656 119.88335937 237.30195313 118.79296875 237.97265625 C114.88665057 240.35708965 110.94418417 242.67892262 107 245 C103.64536556 246.97837416 100.29138174 248.95785012 96.9375 250.9375 C96.0201709 251.47874512 95.1028418 252.01999023 94.15771484 252.57763672 C86.21186137 257.27139546 78.28924904 262.00322451 70.375 266.75 C69.74452759 267.12791687 69.11405518 267.50583374 68.46447754 267.89520264 C61.44370213 272.10494024 54.43634514 276.33511033 47.45703125 280.61328125 C26.42122187 293.49981724 26.42122187 293.49981724 17 298.5 C16.3299292 298.85586182 15.6598584 299.21172363 14.96948242 299.57836914 C8.74703575 302.79295675 2.82667228 304.19719745 -4.11523438 302.4753418 C-9.43552896 300.72249903 -14.05125929 298.49581119 -18.8125 295.5625 C-19.53332764 295.12856934 -20.25415527 294.69463867 -20.99682617 294.24755859 C-22.53914041 293.3182471 -24.07921467 292.38520933 -25.6171875 291.44873047 C-28.01990347 289.98789886 -30.43035212 288.54076375 -32.84375 287.09765625 C-39.79007642 282.94274808 -46.72842149 278.77536428 -53.64453125 274.5703125 C-54.56194092 274.01456543 -55.47935059 273.45881836 -56.42456055 272.88623047 C-58.19517507 271.8133927 -59.96365072 270.73701522 -61.72973633 269.65673828 C-62.52275146 269.1770459 -63.3157666 268.69735352 -64.1328125 268.203125 C-64.83293457 267.77676758 -65.53305664 267.35041016 -66.25439453 266.91113281 C-67.96732067 265.84576049 -67.96732067 265.84576049 -70 266 C-70.433125 265.525625 -70.86625 265.05125 -71.3125 264.5625 C-73.44693733 262.58616914 -75.16307947 262.38336764 -78 262 C-78 261.34 -78 260.68 -78 260 C-80.51315065 258.36310527 -83.01999368 256.85309659 -85.625 255.375 C-86.7696875 254.71274414 -86.7696875 254.71274414 -87.9375 254.03710938 C-91.68075235 251.87634494 -95.44193368 249.74827149 -99.2109375 247.6328125 C-99.85208496 247.2713916 -100.49323242 246.9099707 -101.15380859 246.53759766 C-102.91139278 245.54979908 -104.67431498 244.57151624 -106.4375 243.59375 C-109 242 -109 242 -110 240 C-111.66044333 239.31798082 -113.32829789 238.65393752 -115 238 C-123.49338731 232.89858354 -130.16644498 227.70082106 -133 218 C-134.73842437 204.38681591 -134.16365871 190.38359558 -134.16796875 176.69140625 C-134.17118897 174.26960735 -134.17455359 171.84780864 -134.17805481 169.42601013 C-134.18400511 164.38076323 -134.18589864 159.33553336 -134.18530273 154.2902832 C-134.18520062 147.83909217 -134.19892142 141.38800998 -134.21607494 134.93684483 C-134.22720424 129.94819132 -134.22922176 124.95956423 -134.22869301 119.97089958 C-134.22986907 117.59195514 -134.23426973 115.21300993 -134.24202538 112.83407784 C-134.25185658 109.51113346 -134.2489362 106.18842698 -134.24291992 102.86547852 C-134.24853943 101.89439148 -134.25415894 100.92330444 -134.25994873 99.92279053 C-134.21627381 90.39741068 -133.11390478 81.18608362 -126.14916992 74.12304688 C-120.75754256 69.23337559 -115.26135975 65.52382758 -108.875 62.0625 C-107.00580463 61.02210034 -105.13731755 59.98042718 -103.26953125 58.9375 C-102.36541504 58.43605469 -101.46129883 57.93460938 -100.52978516 57.41796875 C-96.58202169 55.20520961 -92.71350442 52.87018335 -88.84692383 50.51953125 C-84.98490039 48.17769408 -81.09600552 45.88861323 -77.1875 43.625 C-75.67047485 42.7421936 -75.67047485 42.7421936 -74.12280273 41.84155273 C-72.10490696 40.6684848 -70.08364399 39.50118738 -68.05883789 38.34008789 C-67.14352295 37.80633545 -66.22820801 37.27258301 -65.28515625 36.72265625 C-64.45894775 36.24578369 -63.63273926 35.76891113 -62.78149414 35.27758789 C-62.19360107 34.85598389 -61.60570801 34.43437988 -61 34 C-61 33.34 -61 32.68 -61 32 C-60.29875 31.9071875 -59.5975 31.814375 -58.875 31.71875 C-55.406126 30.8515315 -53.03775919 29.39859949 -50 27.5 C-48.68861431 26.6934978 -47.37599253 25.88900387 -46.0625 25.0859375 C-45.29421875 24.61510742 -44.5259375 24.14427734 -43.734375 23.65917969 C-38.50399074 20.48545724 -33.23284743 17.38061423 -27.95947266 14.27905273 C-26.02682458 13.14079863 -24.09738729 11.99723289 -22.16796875 10.85351562 C-20.94549838 10.13379877 -19.72284921 9.4143855 -18.5 8.6953125 C-16.87578125 7.7364917 -16.87578125 7.7364917 -15.21875 6.75830078 C-5.57963769 1.49276021 -5.57963769 1.49276021 0 2 C0 1.34 0 0.68 0 0 Z M26 98 C26 104.93 26 111.86 26 119 C34.25 119 42.5 119 51 119 C51 147.71 51 176.42 51 206 C56.94 206 62.88 206 69 206 C69.92420579 198.60635365 69.94870863 191.70363631 69.31860352 184.30859375 C68.90335908 179.19328184 68.90335908 179.19328184 70 177 C70.09715342 174.66831782 70.12978217 172.33370043 70.125 170 C70.12757813 168.741875 70.13015625 167.48375 70.1328125 166.1875 C70.22227358 163.10322182 70.22227358 163.10322182 69 161 C69.08828297 159.61129777 69.24338243 158.22663348 69.4296875 156.84765625 C70.15180255 150.39389811 70.15073292 143.97152803 70.13037109 137.4831543 C70.12492759 135.40992191 70.13039126 133.3368984 70.13671875 131.26367188 C70.13542969 129.95849609 70.13414062 128.65332031 70.1328125 127.30859375 C70.13112061 125.52666626 70.13112061 125.52666626 70.12939453 123.70874023 C70.30834561 121.08415832 70.30834561 121.08415832 69 120 C77.91 119.67 86.82 119.34 96 119 C96 112.4 96 105.8 96 99 C92.22517648 98.05629412 89.35064653 97.87910182 85.48730469 97.88647461 C84.84298492 97.88632858 84.19866516 97.88618256 83.53482056 97.8860321 C81.41380397 97.8867265 79.29287617 97.89449664 77.171875 97.90234375 C75.69785612 97.90420961 74.22383662 97.90563272 72.74981689 97.90663147 C68.87661008 97.91044339 65.00344097 97.92026235 61.13024902 97.93133545 C57.17537954 97.94157807 53.22050394 97.9461352 49.265625 97.95117188 C41.51039752 97.96188583 33.75520885 97.97947188 26 98 Z M-12 102 C-13.4078105 104.21572472 -13.4078105 104.21572472 -14.59375 106.6484375 C-15.06119629 107.56141602 -15.52864258 108.47439453 -16.01025391 109.41503906 C-16.50187012 110.39182617 -16.99348633 111.36861328 -17.5 112.375 C-18.55811524 114.44101707 -19.61806315 116.50609639 -20.6796875 118.5703125 C-21.22334961 119.62895508 -21.76701172 120.68759766 -22.32714844 121.77832031 C-25.02448294 126.97301181 -27.81779721 132.11405585 -30.625 137.25 C-31.13353516 138.18376465 -31.64207031 139.1175293 -32.16601562 140.07958984 C-34.02227863 143.47200518 -35.85351228 146.78026842 -38 150 C-43.65138363 140.54380946 -48.74809689 130.8804081 -53.75 121.06640625 C-54.9099888 118.80598165 -56.09735449 116.55938356 -57.3125 114.328125 C-59 111 -59 111 -60.1875 107.484375 C-61.72902478 103.5755086 -62.65070019 101.59144587 -66 99 C-73.53418292 97.50078532 -81.40596719 98.27702361 -89 99 C-89.0233412 109.6413622 -89.04102469 120.28271813 -89.05181217 130.92410088 C-89.05699393 135.86721588 -89.06400424 140.81031316 -89.07543945 145.75341797 C-89.08643793 150.53858739 -89.09231211 155.32373995 -89.09487724 160.10892105 C-89.09670135 161.91941722 -89.10026191 163.72991263 -89.10573006 165.54040146 C-89.13451388 175.48111675 -89.00068826 185.35595572 -88.26287174 195.27358818 C-88.02600718 198.70896977 -87.84710445 201.71714368 -89 205 C-85.091312 205.92055082 -81.44907765 206.13429682 -77.4375 206.125 C-76.32246094 206.12757813 -75.20742187 206.13015625 -74.05859375 206.1328125 C-71.48413065 206.02102228 -69.45887766 205.66840054 -67 205 C-66.97473437 197.18547248 -66.95716895 189.37095542 -66.94506836 181.55639648 C-66.94002617 178.89558519 -66.93319264 176.23477668 -66.92456055 173.57397461 C-66.91248991 169.75894484 -66.90677071 165.94395156 -66.90234375 162.12890625 C-66.89718246 160.93100967 -66.89202118 159.7331131 -66.88670349 158.49891663 C-66.88662796 157.3978508 -66.88655243 156.29678497 -66.88647461 155.16235352 C-66.88314369 153.7000808 -66.88314369 153.7000808 -66.87974548 152.20826721 C-66.75218415 150.02527884 -66.75218415 150.02527884 -68 149 C-67.71325582 146.99279077 -67.38133299 144.9914056 -67 143 C-67.66 143 -68.32 143 -69 143 C-68.67 142.34 -68.34 141.68 -68 141 C-67.960008 139.00039988 -67.95653201 136.99952758 -68 135 C-64.88276161 136.55861919 -64.0675158 139.65387212 -62.625 142.6875 C-59.2452735 149.62508559 -55.65086071 156.422927 -51.9375 163.1875 C-51.42364746 164.12376221 -50.90979492 165.06002441 -50.38037109 166.0246582 C-49.38083853 167.84433236 -48.3808547 169.66375873 -47.38037109 171.48291016 C-45.48588825 174.93747651 -43.61390193 178.40385974 -41.75 181.875 C-41.20859375 182.88304687 -40.6671875 183.89109375 -40.109375 184.9296875 C-39.74328125 185.61289063 -39.3771875 186.29609375 -39 187 C-38.34 187 -37.68 187 -37 187 C-36.29822632 185.67162109 -36.29822632 185.67162109 -35.58227539 184.31640625 C-19.23416859 153.38607035 -19.23416859 153.38607035 -12.46875 141.5703125 C-11.60969096 140.06695918 -10.77434536 138.54869071 -10 137 C-9.01 137 -8.02 137 -7 137 C-6.67 137.99 -6.34 138.98 -6 140 C-6.66 140 -7.32 140 -8 140 C-8 161.45 -8 182.9 -8 205 C-4.69005287 206.65497356 -1.00877 206.10084335 2.625 206.0625 C3.42679687 206.05798828 4.22859375 206.05347656 5.0546875 206.04882812 C7.03649006 206.03703168 9.01825433 206.01909605 11 206 C12.29843498 201.04940262 12.13303289 196.14661615 12.11352539 191.0690918 C12.11367142 190.07349747 12.11381744 189.07790314 12.1139679 188.05213928 C12.11327232 184.76781012 12.10549652 181.48353798 12.09765625 178.19921875 C12.09579081 175.91950003 12.0943675 173.63978091 12.09336853 171.36006165 C12.08955329 165.36448049 12.07973146 159.36892362 12.06866455 153.37335205 C12.0584291 147.253462 12.05386633 141.13356802 12.04882812 135.01367188 C12.03810832 123.00910392 12.02104379 111.00455398 12 99 C7.76624584 98.09650204 3.7745538 97.7693312 -0.5625 97.6875 C-2.51349609 97.63142578 -2.51349609 97.63142578 -4.50390625 97.57421875 C-8.6642151 98.08089324 -9.33877863 98.90020025 -12 102 Z M-8 137 C-7 139 -7 139 -7 139 Z " fill="#2C80DC" transform="translate(142,3)"/>
<path d="M0 0 C1.93238525 0.07855225 1.93238525 0.07855225 3.90380859 0.15869141 C4.58905609 0.18371735 5.27430359 0.20874329 5.98031616 0.23452759 C8.17145919 0.316777 10.3617072 0.41334439 12.55224609 0.51025391 C14.0365844 0.56848863 15.52095955 0.62579202 17.00537109 0.68212891 C20.64648583 0.82236148 24.28693229 0.97544141 27.92724609 1.13525391 C27.92724609 1.46525391 27.92724609 1.79525391 27.92724609 2.13525391 C17.80235701 3.14056204 7.99999142 3.81404479 -2.07275391 2.13525391 C-2.07275391 9.06525391 -2.07275391 15.99525391 -2.07275391 23.13525391 C6.17724609 23.13525391 14.42724609 23.13525391 22.92724609 23.13525391 C22.92724609 51.84525391 22.92724609 80.55525391 22.92724609 110.13525391 C29.52724609 110.13525391 36.12724609 110.13525391 42.92724609 110.13525391 C42.92724609 110.46525391 42.92724609 110.79525391 42.92724609 111.13525391 C35.66724609 111.13525391 28.40724609 111.13525391 20.92724609 111.13525391 C20.92724609 82.75525391 20.92724609 54.37525391 20.92724609 25.13525391 C13.00724609 25.13525391 5.08724609 25.13525391 -3.07275391 25.13525391 C-5.52488364 22.68312417 -4.60521404 16.50733817 -4.76025391 13.19775391 C-4.82019531 12.16972656 -4.88013672 11.14169922 -4.94189453 10.08251953 C-4.98894531 9.10089844 -5.03599609 8.11927734 -5.08447266 7.10791016 C-5.13047607 6.20306885 -5.17647949 5.29822754 -5.22387695 4.3659668 C-4.9685529 0.59715282 -3.6021032 0.15855436 0 0 Z " fill="#2976C7" transform="translate(170.07275390625,98.86474609375)"/>
<path d="M0 0 C4.23944575 1.28343741 7.8186259 2.89117554 11.61328125 5.16796875 C13.22058105 6.12654785 13.22058105 6.12654785 14.86035156 7.10449219 C16.01113401 7.79871824 17.16184857 8.49305682 18.3125 9.1875 C19.50587497 9.90188517 20.69956467 10.61574483 21.89355469 11.32910156 C24.98393326 13.17738299 28.07012111 15.03253867 31.15509033 16.88983154 C34.13152177 18.68088958 37.11074702 20.46728618 40.08984375 22.25390625 C43.34943997 24.20891395 46.6084838 26.16477079 49.86450195 28.12573242 C59.36038892 34.57447369 59.36038892 34.57447369 70 38 C70.67289062 38.09796875 71.34578125 38.1959375 72.0390625 38.296875 C78.88078606 38.87630436 83.52648672 36.65693042 89.35327148 33.40234375 C90.87683394 32.55432919 92.43623668 31.7713725 94 31 C94.66 31.33 95.32 31.66 96 32 C87.99830658 37.45366814 79.9137504 42.10152782 70 41 C63.85529847 39.39490061 58.57062569 36.87894287 53.1875 33.5625 C52.46667236 33.12856934 51.74584473 32.69463867 51.00317383 32.24755859 C49.46085959 31.3182471 47.92078533 30.38520933 46.3828125 29.44873047 C43.98009653 27.98789886 41.56964788 26.54076375 39.15625 25.09765625 C32.20992358 20.94274808 25.27157851 16.77536428 18.35546875 12.5703125 C17.43805908 12.01456543 16.52064941 11.45881836 15.57543945 10.88623047 C13.80482493 9.8133927 12.03634928 8.73701522 10.27026367 7.65673828 C9.47724854 7.1770459 8.6842334 6.69735352 7.8671875 6.203125 C7.16706543 5.77676758 6.46694336 5.35041016 5.74560547 4.91113281 C4.03267933 3.84576049 4.03267933 3.84576049 2 4 C1.34 2.68 0.68 1.36 0 0 Z " fill="#2D78C8" transform="translate(70,265)"/>
<path d="M0 0 C0.66 0 1.32 0 2 0 C6.1310356 7.30153431 6.58388341 13.70458887 6.54931641 21.98022461 C6.55953827 23.25294724 6.56976013 24.52566986 6.58029175 25.83695984 C6.60690052 29.30404861 6.6082488 32.77069912 6.60316515 36.23786998 C6.60101427 39.14276282 6.61082135 42.04756904 6.62037599 44.95244318 C6.64250642 51.8104034 6.6434747 58.66814447 6.63134766 65.52612305 C6.61926767 72.57860546 6.64390318 79.63028988 6.68648779 86.6826362 C6.72181927 92.75940815 6.73370717 98.83592721 6.72721231 104.91279799 C6.7236024 108.53272814 6.72869814 112.15208876 6.75664139 115.77192497 C6.78666626 119.8119303 6.76777392 123.85033009 6.74462891 127.89038086 C6.75991638 129.07458618 6.77520386 130.2587915 6.79095459 131.47888184 C6.69150953 139.35735034 5.01616936 144.83261392 0 151 C-5.44305258 156 -5.44305258 156 -9 156 C-9 155.34 -9 154.68 -9 154 C-7.55483759 153.05896401 -6.10913159 152.11874805 -4.66015625 151.18359375 C0.57088624 147.45416817 2.38187855 143.69037947 3.61467361 137.63487053 C4.33380455 132.71743694 4.29460757 127.80715942 4.29052734 122.84594727 C4.29724457 121.66100677 4.30396179 120.47606628 4.31088257 119.25521851 C4.32654048 116.02993566 4.33323245 112.80480804 4.33451414 109.57949185 C4.33594296 107.55868462 4.34022617 105.53790382 4.34550858 103.5171032 C4.36396408 96.45108215 4.37218444 89.38513615 4.37060547 82.3190918 C4.36940383 75.7575676 4.39052181 69.19637218 4.4220928 62.63493115 C4.44832831 56.97857368 4.4589698 51.32232319 4.45769465 45.66590542 C4.45718734 42.29758945 4.46274174 38.92956645 4.48405075 35.56131172 C4.50372046 31.80174812 4.4978682 28.04302538 4.48583984 24.28344727 C4.49707886 23.18339859 4.50831787 22.08334991 4.51989746 20.94996643 C4.46842609 14.59544598 3.53122704 9.73735637 0.85791969 3.95097256 C0 2 0 2 0 0 Z " fill="#2D70BC" transform="translate(274,81)"/>
<path d="M0 0 C0 0.66 0 1.32 0 2 C-2.01442367 3.3711887 -4.01592102 4.60043203 -6.125 5.8125 C-7.1293811 6.40236694 -7.1293811 6.40236694 -8.15405273 7.00415039 C-9.6401892 7.87650259 -11.12817017 8.74571772 -12.61767578 9.61230469 C-15.88794335 11.51722382 -19.14647096 13.44174321 -22.40454102 15.36743164 C-24.19671836 16.42607888 -25.99020646 17.48250987 -27.78491211 18.53686523 C-32.85133963 21.5195306 -37.89443425 24.53628174 -42.9087677 27.60554504 C-45.65306524 29.2851325 -48.40164627 30.95765279 -51.15011597 32.63040161 C-52.50535759 33.45829243 -53.85834426 34.2898862 -55.20901489 35.12521362 C-57.10653998 36.29841289 -59.01130744 37.45891459 -60.91796875 38.6171875 C-62.56962036 39.63208252 -62.56962036 39.63208252 -64.25463867 40.66748047 C-67 42 -67 42 -70 41 C-62.73221115 36.3015603 -55.37171836 31.8222555 -47.875 27.5 C-39.04331108 22.37820697 -30.25300217 17.19268335 -21.5 11.9375 C-20.46858887 11.31875 -19.43717773 10.7 -18.37451172 10.0625 C-14.01971451 7.44346092 -9.68549983 4.80731964 -5.40625 2.06640625 C-2 0 -2 0 0 0 Z " fill="#2E76C6" transform="translate(264,237)"/>
<path d="M0 0 C0 8.25 0 16.5 0 25 C-8.91 25 -17.82 25 -27 25 C-27.33 26.32 -27.66 27.64 -28 29 C-28.66 27.02 -29.32 25.04 -30 23 C-20.76 23 -11.52 23 -2 23 C-2.495 13.1 -2.495 13.1 -3 3 C-5.97 3 -8.94 3 -12 3 C-13.32 2.34 -14.64 1.68 -16 1 C-14.64648453 0.82812502 -13.29213367 0.66282742 -11.9375 0.5 C-10.80634766 0.36078125 -10.80634766 0.36078125 -9.65234375 0.21875 C-6.44495951 -0.04577654 -3.21827406 0 0 0 Z " fill="#2A77C8" transform="translate(240,99)"/>
<path d="M0 0 C2 2 2 2 2.24050903 3.98684692 C2.23606781 4.79959076 2.23162659 5.61233459 2.22705078 6.44970703 C2.22689972 7.37051056 2.22674866 8.29131409 2.22659302 9.24002075 C2.21627045 10.23589203 2.20594788 11.23176331 2.1953125 12.2578125 C2.1924826 13.27600067 2.18965271 14.29418884 2.18673706 15.3432312 C2.1755177 18.603939 2.15040996 21.86437484 2.125 25.125 C2.11497247 27.33202729 2.10584623 29.53905888 2.09765625 31.74609375 C2.07557268 37.16415572 2.04207795 42.58205843 2 48 C1.01 48.495 1.01 48.495 0 49 C-0.77418633 46.25038736 -1.12608823 43.80685189 -1.12939453 40.95336914 C-1.13254669 40.16897964 -1.13569885 39.38459015 -1.13894653 38.57643127 C-1.1369223 37.73781052 -1.13489807 36.89918976 -1.1328125 36.03515625 C-1.13376923 35.16483261 -1.13472595 34.29450897 -1.13571167 33.39781189 C-1.13639129 31.5595594 -1.13455222 29.7213045 -1.13037109 27.88305664 C-1.12502624 25.07627947 -1.13032015 22.26966279 -1.13671875 19.46289062 C-1.1360578 17.67447881 -1.1347763 15.8860671 -1.1328125 14.09765625 C-1.13483673 13.26105972 -1.13686096 12.4244632 -1.13894653 11.56251526 C-1.12298744 7.57526671 -0.99080208 3.89187453 0 0 Z " fill="#247BD0" transform="translate(52,110)"/>
<path d="M0 0 C3.375 -0.125 3.375 -0.125 7 0 C7.66 0.66 8.32 1.32 9 2 C10.81458935 2.95323365 12.65167628 3.86394791 14.5 4.75 C20.19690647 7.54341066 25.61922521 10.64296794 31 14 C30.34 14.66 29.68 15.32 29 16 C28.01 15.38511719 27.02 14.77023438 26 14.13671875 C24.66688719 13.31995245 23.33354128 12.50356653 22 11.6875 C21.02740234 11.08131836 21.02740234 11.08131836 20.03515625 10.46289062 C12.77464426 6.0418858 5.68415376 2.56212971 -3.015625 4.43359375 C-9.0526566 6.181727 -14.17155155 9.28973103 -19.49609375 12.57421875 C-22 14 -22 14 -24 14 C-24 13.34 -24 12.68 -24 12 C-21.50901191 10.50359332 -19.0089362 9.02827035 -16.5 7.5625 C-15.80390625 7.14162109 -15.1078125 6.72074219 -14.390625 6.28710938 C-9.49933863 3.45650384 -5.64727769 2.34977508 0 2 C0 1.34 0 0.68 0 0 Z " fill="#2D79CA" transform="translate(142,3)"/>
<path d="M0 0 C0.33 0 0.66 0 1 0 C2.22031898 4.75037667 2.12723661 9.37166264 2.09765625 14.23828125 C2.0962413 15.11904831 2.09482635 15.99981537 2.09336853 16.90727234 C2.08778937 19.70905003 2.07524071 22.51074662 2.0625 25.3125 C2.05748231 27.21679572 2.05291987 29.12109269 2.04882812 31.02539062 C2.03782677 35.68362481 2.02057649 40.34179867 2 45 C1.34 45 0.68 45 0 45 C-0.92317691 36.55952537 -1.10949028 28.17131422 -1.125 19.6875 C-1.12951172 18.66205078 -1.13402344 17.63660156 -1.13867188 16.58007812 C-1.127714 10.95868583 -0.83696348 5.55982885 0 0 Z " fill="#237FD1" transform="translate(154,102)"/>
<path d="M0 0 C0.99 0.33 1.98 0.66 3 1 C2.99476318 1.63276855 2.98952637 2.26553711 2.98413086 2.91748047 C2.9627996 5.90331711 2.94892903 8.88910874 2.9375 11.875 C2.93274658 12.9587793 2.92799316 14.04255859 2.9230957 15.15917969 C2.92034748 22.62776381 3.16783853 30.03036596 3.90795898 37.46435547 C4.17402829 40.74704906 4.23220862 42.61033065 2.51953125 45.484375 C2.01808594 45.98453125 1.51664063 46.4846875 1 47 C0.06798358 31.32215242 -0.12135629 15.70350428 0 0 Z " fill="#287CD2" transform="translate(51,161)"/>
<path d="M0 0 C1 3 1 3 -0.4152832 6.21459961 C-1.11679637 7.53272514 -1.82942869 8.84497 -2.55078125 10.15234375 C-2.92478561 10.84888565 -3.29878998 11.54542755 -3.68412781 12.26307678 C-4.88419251 14.49310611 -6.09801069 16.71529917 -7.3125 18.9375 C-8.12007596 20.43113529 -8.926728 21.92527051 -9.73242188 23.41992188 C-11.2146543 26.1684862 -12.70313003 28.91349815 -14.1965332 31.65600586 C-15.50797979 34.08769449 -16.7895041 36.51740436 -18 39 C-20.63249349 36.54300608 -22.78137264 34.43431346 -24 31 C-23.505 29.515 -23.505 29.515 -23 28 C-22.54625 28.825 -22.0925 29.65 -21.625 30.5 C-21.08875 31.325 -20.5525 32.15 -20 33 C-19.34 33 -18.68 33 -18 33 C-17.63237549 32.3201001 -17.26475098 31.6402002 -16.88598633 30.93969727 C-15.19535001 27.81368016 -13.50393011 24.68808767 -11.8125 21.5625 C-11.23435547 20.49322266 -10.65621094 19.42394531 -10.06054688 18.32226562 C-6.74349992 12.19416194 -3.40191066 6.08143788 0 0 Z " fill="#2D76C8" transform="translate(123,115)"/>
<path d="M0 0 C-0.51949219 0.31453125 -1.03898437 0.6290625 -1.57421875 0.953125 C-3.73242195 2.27756763 -5.86537157 3.63797962 -8 5 C-8.886875 5.53625 -9.77375 6.0725 -10.6875 6.625 C-20.49597837 16.69857238 -18.91948476 30.88233132 -19 44 C-19.33 44 -19.66 44 -20 44 C-20.116965 39.66689672 -20.1875089 35.3342042 -20.25 31 C-20.28351562 29.77925781 -20.31703125 28.55851562 -20.3515625 27.30078125 C-20.44302866 18.84016163 -19.50488949 13.43011759 -14.25390625 6.79296875 C-5.37926523 -1.63076672 -5.37926523 -1.63076672 0 0 Z " fill="#2B70C1" transform="translate(29,71)"/>
<path d="M0 0 C0.66 0 1.32 0 2 0 C2.4846875 0.99257812 2.969375 1.98515625 3.46875 3.0078125 C4.14482631 4.3807047 4.82199219 5.75306065 5.5 7.125 C5.85441162 7.84333008 6.20882324 8.56166016 6.57397461 9.30175781 C9.63323745 15.42701455 13.04285767 21.27950397 16.62890625 27.109375 C18.13205444 30.27840537 18.01630663 30.84305252 17 34 C16.62713867 33.29915283 16.25427734 32.59830566 15.87011719 31.8762207 C14.16872388 28.68544817 12.45945174 25.49896197 10.75 22.3125 C10.16347656 21.20970703 9.57695313 20.10691406 8.97265625 18.97070312 C8.39902344 17.90400391 7.82539062 16.83730469 7.234375 15.73828125 C6.71069336 14.75899658 6.18701172 13.77971191 5.64746094 12.77075195 C4.04461088 9.92065048 4.04461088 9.92065048 1.81347656 7.31713867 C-0.29729285 4.62013914 -0.38153849 3.33846183 0 0 Z " fill="#2B75C7" transform="translate(75,139)"/>
<path d="M0 0 C4.38400787 0.59018418 7.46573911 2.21251607 11.25390625 4.45703125 C11.83663803 4.80126633 12.41936981 5.1455014 13.01976013 5.50016785 C14.24630866 6.22713582 15.47073004 6.95770343 16.69311523 7.69165039 C18.55459871 8.80776253 20.42405454 9.90947238 22.29492188 11.00976562 C23.49008719 11.72050758 24.68476543 12.43206936 25.87890625 13.14453125 C26.9572876 13.78753174 28.03566895 14.43053223 29.14672852 15.09301758 C31.78992453 16.85959618 33.85489841 18.66710083 36 21 C35.67 21.66 35.34 22.32 35 23 C34.56534424 22.65026123 34.13068848 22.30052246 33.68286133 21.94018555 C27.6943144 17.27359679 21.28105667 13.55457305 14.6875 9.8125 C12.54307866 8.59422375 10.40103664 7.37174717 8.26171875 6.14453125 C7.32287842 5.61190674 6.38403809 5.07928223 5.41674805 4.53051758 C3.27805281 3.17608981 1.68298102 1.87313648 0 0 Z " fill="#2C75C6" transform="translate(237,57)"/>
<path d="M0 0 C0.33 0 0.66 0 1 0 C1.10957031 0.65226563 1.21914062 1.30453125 1.33203125 1.9765625 C2.26897114 7.14115799 3.40599122 11.3758974 6 16 C6.33 16.99 6.66 17.98 7 19 C8.75326794 20.01347439 8.75326794 20.01347439 11 21 C13.10055017 22.30604156 15.18277633 23.64182406 17.25 25 C18.32765625 25.70125 19.4053125 26.4025 20.515625 27.125 C21.33546875 27.74375 22.1553125 28.3625 23 29 C23 29.66 23 30.32 23 31 C13.68893374 27.59756046 4.96377401 21.19698203 0.625 12.125 C-0.1907641 8.04617951 -0.16574726 4.14368151 0 0 Z " fill="#2E74C2" transform="translate(9,212)"/>
<path d="M0 0 C0.66 0 1.32 0 2 0 C1.62453532 7.38413879 1.62453532 7.38413879 -1.25 10.21875 C-4.70881615 13.71687088 -6.61578493 17.45196576 -8.8125 21.8125 C-9.21919922 22.60076172 -9.62589844 23.38902344 -10.04492188 24.20117188 C-11.03843902 26.12976398 -12.02041028 28.06429656 -13 30 C-13.66 29.34 -14.32 28.68 -15 28 C-10.0589009 18.63387214 -5.10883999 9.27605064 0 0 Z " fill="#2E7BCD" transform="translate(131,140)"/>
<path d="M0 0 C3.62181722 0.67678533 6.36464306 2.20841853 9.53515625 4.0546875 C10.59154297 4.66957031 11.64792969 5.28445312 12.73632812 5.91796875 C13.83396484 6.56378906 14.93160156 7.20960938 16.0625 7.875 C17.16400391 8.51308594 18.26550781 9.15117187 19.40039062 9.80859375 C28.33619212 15.03797544 28.33619212 15.03797544 31 18 C26.72871661 17.41198861 23.75769013 15.90481249 20.078125 13.69140625 C18.97082031 13.02689453 17.86351562 12.36238281 16.72265625 11.67773438 C16.15305176 11.33057373 15.58344727 10.98341309 14.99658203 10.62573242 C13.2468068 9.56055614 11.48933877 8.50905969 9.73046875 7.45898438 C1.13250484 2.26500969 1.13250484 2.26500969 0 0 Z " fill="#2D75C6" transform="translate(33,243)"/>
<path d="M0 0 C0.33 0 0.66 0 1 0 C2.25702932 14.05938951 1.74862428 27.91873381 1 42 C-1.59672659 38.12195576 -1.27149279 34.03568333 -1.23046875 29.55078125 C-1.23001053 28.73755905 -1.22955231 27.92433685 -1.2290802 27.08647156 C-1.22606544 25.37265559 -1.21820238 23.65884218 -1.20581055 21.94506836 C-1.18749366 19.31158842 -1.18530137 16.67845902 -1.18554688 14.04492188 C-1.18063373 12.38020527 -1.1748063 10.71549106 -1.16796875 9.05078125 C-1.16685593 8.25916092 -1.1657431 7.46754059 -1.16459656 6.65193176 C-1.11606827 1.11606827 -1.11606827 1.11606827 0 0 Z " fill="#1E7DC9" transform="translate(9,169)"/>
<path d="M0 0 C4.18111539 4.66660035 6.79164187 10.02836066 9.625 15.5625 C10.11484375 16.50802734 10.6046875 17.45355469 11.109375 18.42773438 C13.09841289 22.27266418 15.07048615 26.12482807 17 30 C16.01 30 15.02 30 14 30 C11.99833498 26.21379587 10.00475203 22.42348219 8.01855469 18.62915039 C7.34172678 17.33892691 6.66270276 16.049853 5.98144531 14.76196289 C5.0026633 12.91069516 4.03185037 11.05543863 3.0625 9.19921875 C2.47597656 8.08377686 1.88945313 6.96833496 1.28515625 5.8190918 C0 3 0 3 0 0 Z " fill="#2C76C9" transform="translate(82,111)"/>
<path d="M0 0 C0.33 0 0.66 0 1 0 C1.69090267 7.2051278 2.12129216 14.38848294 2.1875 21.625 C2.20039063 22.31142578 2.21328125 22.99785156 2.2265625 23.70507812 C2.23388086 27.37523466 2.09427878 28.85858183 0 32 C-0.79973292 28.48061924 -1.1283519 25.2274898 -1.1328125 21.62109375 C-1.13410156 20.61755859 -1.13539063 19.61402344 -1.13671875 18.58007812 C-1.13285156 17.54302734 -1.12898437 16.50597656 -1.125 15.4375 C-1.12886719 14.39658203 -1.13273438 13.35566406 -1.13671875 12.28320312 C-1.13542969 11.28095703 -1.13414062 10.27871094 -1.1328125 9.24609375 C-1.13168457 8.33529053 -1.13055664 7.4244873 -1.12939453 6.48608398 C-1.00937295 4.18008442 -0.64947474 2.2086656 0 0 Z " fill="#2687D0" transform="translate(9,116)"/>
<path d="M0 0 C-1.134375 0.66386719 -2.26875 1.32773437 -3.4375 2.01171875 C-4.95836841 2.90358603 -6.47919976 3.7955165 -8 4.6875 C-8.74378906 5.12255859 -9.48757812 5.55761719 -10.25390625 6.00585938 C-14.69040043 8.60988857 -19.0617647 11.28270387 -23.37109375 14.09301758 C-25 15 -25 15 -27 15 C-27 14.34 -27 13.68 -27 13 C-23.23860655 10.33349625 -19.17489455 8.12314402 -15.1875 5.8125 C-14.06794922 5.14541016 -12.94839844 4.47832031 -11.79492188 3.79101562 C-10.72177734 3.16517578 -9.64863281 2.53933594 -8.54296875 1.89453125 C-7.0583313 1.02598511 -7.0583313 1.02598511 -5.54370117 0.13989258 C-3 -1 -3 -1 0 0 Z " fill="#2B78C8" transform="translate(111,22)"/>
<path d="M0 0 C-2.5197616 1.58506012 -5.04076562 3.16808381 -7.5625 4.75 C-8.26697266 5.1934375 -8.97144531 5.636875 -9.69726562 6.09375 C-11.10739858 6.97751996 -12.52098169 7.85580915 -13.93798828 8.72851562 C-15.28304149 9.55790671 -16.62045666 10.3998533 -17.94873047 11.25585938 C-22.46001168 14.05538342 -22.46001168 14.05538342 -25.4375 13.75 C-25.953125 13.5025 -26.46875 13.255 -27 13 C-26.28714844 12.62488281 -25.57429687 12.24976563 -24.83984375 11.86328125 C-18.32463085 8.39423393 -18.32463085 8.39423393 -12.1875 4.3125 C-4.27777778 -1.42592593 -4.27777778 -1.42592593 0 0 Z " fill="#2D75C6" transform="translate(193,281)"/>
<path d="M0 0 C-3.59783302 2.17731928 -7.20425232 4.33999112 -10.8125 6.5 C-11.83666016 7.12003906 -12.86082031 7.74007812 -13.91601562 8.37890625 C-14.89892578 8.96542969 -15.88183594 9.55195312 -16.89453125 10.15625 C-17.80050049 10.70087891 -18.70646973 11.24550781 -19.63989258 11.80664062 C-22 13 -22 13 -25 13 C-21.53137421 9.29523272 -17.35228589 6.90186764 -13.0625 4.25 C-12.25103516 3.73050781 -11.43957031 3.21101563 -10.60351562 2.67578125 C-9.81783203 2.18980469 -9.03214844 1.70382813 -8.22265625 1.203125 C-7.50859619 0.75614258 -6.79453613 0.30916016 -6.05883789 -0.15136719 C-3.59075559 -1.16868654 -2.46383911 -0.90501304 0 0 Z " fill="#2D75C9" transform="translate(81,40)"/>
<path d="M0 0 C-2.35360118 1.41761307 -4.70786228 2.8341104 -7.0625 4.25 C-7.71927734 4.64574219 -8.37605469 5.04148437 -9.05273438 5.44921875 C-11.03177242 6.63859137 -13.01488491 7.82080141 -15 9 C-15.65597168 9.39251953 -16.31194336 9.78503906 -16.98779297 10.18945312 C-21.76745756 13 -21.76745756 13 -24 13 C-24 12.34 -24 11.68 -24 11 C-20.57204403 8.96263414 -17.13124835 6.94803801 -13.6875 4.9375 C-12.71103516 4.35677734 -11.73457031 3.77605469 -10.72851562 3.17773438 C-9.79072266 2.63310547 -8.85292969 2.08847656 -7.88671875 1.52734375 C-7.02264404 1.01937256 -6.15856934 0.51140137 -5.26831055 -0.01196289 C-3 -1 -3 -1 0 0 Z " fill="#2D76C8" transform="translate(54,56)"/>
<path d="M0 0 C3.63700958 0.5685321 6.25878841 1.51133987 9.390625 3.43359375 C10.18210938 3.91763672 10.97359375 4.40167969 11.7890625 4.90039062 C13.00722656 5.66125977 13.00722656 5.66125977 14.25 6.4375 C15.07757813 6.94087891 15.90515625 7.44425781 16.7578125 7.96289062 C22.86668272 11.73336544 22.86668272 11.73336544 24 14 C20.64446115 13.34544853 18.15597637 12.06891834 15.234375 10.3125 C13.90019531 9.51199219 13.90019531 9.51199219 12.5390625 8.6953125 C11.61867187 8.13585938 10.69828125 7.57640625 9.75 7 C8.34621094 6.16082031 8.34621094 6.16082031 6.9140625 5.3046875 C1.80693703 2.22254473 1.80693703 2.22254473 0 1 C0 0.67 0 0.34 0 0 Z " fill="#2C75C7" transform="translate(178,22)"/>
<path d="M0 0 C0.33 0 0.66 0 1 0 C1.78795778 6.04100961 0.05198801 9.60931322 -3.20703125 14.6875 C-5.79299656 18.02277552 -8.34964675 19.89402697 -12 22 C-12.66 22 -13.32 22 -14 22 C-14 21.34 -14 20.68 -14 20 C-12.55483759 19.05896401 -11.10913159 18.11874805 -9.66015625 17.18359375 C-5.02790065 13.881068 -2.92482092 10.62968513 -1.75 5.1875 C-1.62109375 4.41792969 -1.4921875 3.64835938 -1.359375 2.85546875 C-1 1 -1 1 0 0 Z " fill="#3076C6" transform="translate(279,215)"/>
<path d="M0 0 C2.81631641 2.49493496 4.40955981 5.26562818 6.1875 8.5625 C6.71730469 9.53316406 7.24710937 10.50382813 7.79296875 11.50390625 C9 14 9 14 9 16 C9.99 16 10.98 16 12 16 C11.67 16.99 11.34 17.98 11 19 C10.34 19 9.68 19 9 19 C7.49212623 16.40011448 5.99354539 13.79559803 4.5 11.1875 C4.07074219 10.44951172 3.64148438 9.71152344 3.19921875 8.95117188 C2.79316406 8.23896484 2.38710937 7.52675781 1.96875 6.79296875 C1.40317383 5.81106567 1.40317383 5.81106567 0.82617188 4.80932617 C0 3 0 3 0 0 Z " fill="#2B77CA" transform="translate(94,174)"/>
<path d="M0 0 C0.33 0 0.66 0 1 0 C1.22331199 1.58129029 1.42804644 3.16521089 1.625 4.75 C1.74101562 5.63171875 1.85703125 6.5134375 1.9765625 7.421875 C2.00207817 10.22859878 1.44843844 11.63384866 0 14 C-0.85690932 9.60833973 -1.17548271 5.47480899 -1 1 C-0.67 0.67 -0.34 0.34 0 0 Z " fill="#227AD1" transform="translate(9,149)"/>
<path d="M0 0 C0.66 0 1.32 0 2 0 C2 5.61 2 11.22 2 17 C1.67 17 1.34 17 1 17 C1 13.7 1 10.4 1 7 C0.34 7 -0.32 7 -1 7 C-0.67 4.69 -0.34 2.38 0 0 Z " fill="#2480D0" transform="translate(212,131)"/>
<path d="M0 0 C0.33 0 0.66 0 1 0 C1.33 4.29 1.66 8.58 2 13 C1.01 12.67 0.02 12.34 -1 12 C-1.14285714 3.42857143 -1.14285714 3.42857143 0 0 Z " fill="#1E7CCD" transform="translate(9,116)"/>
<path d="M0 0 C3.82097239 0.53069061 6.06171403 1.49701566 9 4 C5.98968256 4.93423645 5.13349732 5.04449911 2 4 C2 3.34 2 2.68 2 2 C1.34 1.34 0.68 0.68 0 0 Z " fill="#2D87D2" transform="translate(62,261)"/>
<path d="M0 0 C0.66 0.33 1.32 0.66 2 1 C-0.475 5.455 -0.475 5.455 -3 10 C-4 6 -4 6 -2.0625 2.75 C-1.381875 1.8425 -0.70125 0.935 0 0 Z " fill="#2A72C3" transform="translate(111,178)"/>
<path d="M0 0 C0.99 0.33 1.98 0.66 3 1 C2.67 1.99 2.34 2.98 2 4 C1.01 3.01 0.02 2.02 -1 1 C-0.67 0.67 -0.34 0.34 0 0 Z " fill="#097AF5" transform="translate(129,303)"/>
<path d="M0 0 C0.99 0.33 1.98 0.66 3 1 C2.01 1.33 1.02 1.66 0 2 C0 1.34 0 0.68 0 0 Z " fill="#1111EE" transform="translate(133,305)"/>
<path d="M0 0 C0.66 0.66 1.32 1.32 2 2 C1.34 2 0.68 2 0 2 C0 1.34 0 0.68 0 0 Z " fill="#38AAC6" transform="translate(113,293)"/>
<path d="M0 0 C0.99 0.495 0.99 0.495 2 1 C1.01 1.495 1.01 1.495 0 2 C0 1.34 0 0.68 0 0 Z " fill="#00D4FF" transform="translate(52,257)"/>
<path d="M0 0 C0.66 0.66 1.32 1.32 2 2 C1.34 2 0.68 2 0 2 C0 1.34 0 0.68 0 0 Z " fill="#1555E9" transform="translate(33,245)"/>
<path d="M0 0 C0.33 0.66 0.66 1.32 1 2 C0.34 1.67 -0.32 1.34 -1 1 C-0.67 0.67 -0.34 0.34 0 0 Z " fill="#2D96EE" transform="translate(129,139)"/>
<path d="M0 0 C3 1 3 1 3 1 Z " fill="#1C71E2" transform="translate(137,3)"/>
<path d="M0 0 C2 1 2 1 2 1 Z " fill="#00BFFF" transform="translate(149,306)"/>
<path d="M0 0 C2 1 2 1 2 1 Z " fill="#2A2AD4" transform="translate(115,295)"/>
<path d="M0 0 C2 1 2 1 2 1 Z " fill="#00BFFF" transform="translate(107,290)"/>
<path d="" fill="#55AAAA" transform="translate(0,0)"/>
<path d="" fill="#2A95D4" transform="translate(0,0)"/>
<path d="" fill="#5555AA" transform="translate(0,0)"/>
<path d="" fill="#00BFFF" transform="translate(0,0)"/>
<path d="M0 0 C2 1 2 1 2 1 Z " fill="#00FFFF" transform="translate(74,104)"/>
<path d="" fill="#0000FF" transform="translate(0,0)"/>
<path d="" fill="#0000FF" transform="translate(0,0)"/>
<path d="M0 0 C2 1 2 1 2 1 Z " fill="#2AD4D4" transform="translate(40,59)"/>
<path d="" fill="#0000FF" transform="translate(0,0)"/>
<path d="" fill="#00FFFF" transform="translate(0,0)"/>
<path d="" fill="#0000FF" transform="translate(0,0)"/>
<path d="" fill="#00FFFF" transform="translate(0,0)"/>
<path d="" fill="#00FFFF" transform="translate(0,0)"/>
<path d="" fill="#0000FF" transform="translate(0,0)"/>
<path d="" fill="#0000FF" transform="translate(0,0)"/>
<path d="" fill="#0080FF" transform="translate(0,0)"/>
<path d="" fill="#0080FF" transform="translate(0,0)"/>
<path d="" fill="#5555AA" transform="translate(0,0)"/>
<path d="" fill="#0080FF" transform="translate(0,0)"/>
<path d="" fill="#0080FF" transform="translate(0,0)"/>
<path d="" fill="#3399CC" transform="translate(0,0)"/>
<path d="" fill="#0000FF" transform="translate(0,0)"/>
<path d="" fill="#00FFFF" transform="translate(0,0)"/>
<path d="" fill="#55AAAA" transform="translate(0,0)"/>
<path d="" fill="#0080FF" transform="translate(0,0)"/>
<path d="" fill="#0080FF" transform="translate(0,0)"/>
<path d="" fill="#0000FF" transform="translate(0,0)"/>
<path d="" fill="#0080FF" transform="translate(0,0)"/>
<path d="" fill="#0080FF" transform="translate(0,0)"/>
<path d="" fill="#0080FF" transform="translate(0,0)"/>
<path d="" fill="#55AAAA" transform="translate(0,0)"/>
<path d="" fill="#55AAAA" transform="translate(0,0)"/>
<path d="" fill="#00FFFF" transform="translate(0,0)"/>
<path d="" fill="#0000FF" transform="translate(0,0)"/>
<path d="" fill="#0000FF" transform="translate(0,0)"/>
<path d="" fill="#5555AA" transform="translate(0,0)"/>
<path d="" fill="#0080FF" transform="translate(0,0)"/>
<path d="" fill="#00FFFF" transform="translate(0,0)"/>
<path d="" fill="#00FFFF" transform="translate(0,0)"/>
<path d="" fill="#0000FF" transform="translate(0,0)"/>
<path d="" fill="#55AAAA" transform="translate(0,0)"/>
<path d="" fill="#55AAAA" transform="translate(0,0)"/>
<path d="" fill="#0080FF" transform="translate(0,0)"/>
<path d="" fill="#00FFFF" transform="translate(0,0)"/>
<path d="" fill="#55AAAA" transform="translate(0,0)"/>
<path d="" fill="#5555AA" transform="translate(0,0)"/>
<path d="" fill="#0080FF" transform="translate(0,0)"/>
<path d="" fill="#0000FF" transform="translate(0,0)"/>
<path d="" fill="#4080BF" transform="translate(0,0)"/>
<path d="" fill="#0000FF" transform="translate(0,0)"/>
<path d="" fill="#0000FF" transform="translate(0,0)"/>
<path d="" fill="#0000FF" transform="translate(0,0)"/>
<path d="" fill="#0080FF" transform="translate(0,0)"/>
<path d="" fill="#0080FF" transform="translate(0,0)"/>
<path d="" fill="#0080FF" transform="translate(0,0)"/>
<path d="" fill="#0000FF" transform="translate(0,0)"/>
<path d="" fill="#5555AA" transform="translate(0,0)"/>
<path d="" fill="#4080BF" transform="translate(0,0)"/>
<path d="" fill="#0080FF" transform="translate(0,0)"/>
<path d="" fill="#0000FF" transform="translate(0,0)"/>
<path d="" fill="#5555AA" transform="translate(0,0)"/>
<path d="" fill="#0000FF" transform="translate(0,0)"/>
<path d="" fill="#0080FF" transform="translate(0,0)"/>
<path d="" fill="#0080FF" transform="translate(0,0)"/>
<path d="" fill="#00FFFF" transform="translate(0,0)"/>
<path d="" fill="#0080FF" transform="translate(0,0)"/>
<path d="" fill="#00FFFF" transform="translate(0,0)"/>
<path d="" fill="#00FFFF" transform="translate(0,0)"/>
<path d="" fill="#00FFFF" transform="translate(0,0)"/>
<path d="" fill="#00FFFF" transform="translate(0,0)"/>
<path d="" fill="#00FFFF" transform="translate(0,0)"/>
<path d="" fill="#00FFFF" transform="translate(0,0)"/>
<path d="" fill="#00FFFF" transform="translate(0,0)"/>
<path d="" fill="#00FFFF" transform="translate(0,0)"/>
<path d="" fill="#00FFFF" transform="translate(0,0)"/>
<path d="" fill="#00FFFF" transform="translate(0,0)"/>
<path d="" fill="#00FFFF" transform="translate(0,0)"/>
<path d="" fill="#00FFFF" transform="translate(0,0)"/>
<path d="" fill="#00FFFF" transform="translate(0,0)"/>
<path d="" fill="#00FFFF" transform="translate(0,0)"/>
<path d="" fill="#00FFFF" transform="translate(0,0)"/>
<path d="" fill="#00FFFF" transform="translate(0,0)"/>
<path d="" fill="#00FFFF" transform="translate(0,0)"/>
<path d="" fill="#00FFFF" transform="translate(0,0)"/>
<path d="" fill="#00FFFF" transform="translate(0,0)"/>
<path d="" fill="#00FFFF" transform="translate(0,0)"/>
<path d="" fill="#0080FF" transform="translate(0,0)"/>
<path d="" fill="#0080FF" transform="translate(0,0)"/>
<path d="" fill="#00FFFF" transform="translate(0,0)"/>
<path d="" fill="#55AAFF" transform="translate(0,0)"/>
<path d="" fill="#00FFFF" transform="translate(0,0)"/>
<path d="" fill="#0080FF" transform="translate(0,0)"/>
<path d="" fill="#0080FF" transform="translate(0,0)"/>
<path d="" fill="#00FFFF" transform="translate(0,0)"/>
<path d="" fill="#00FFFF" transform="translate(0,0)"/>
<path d="" fill="#00FFFF" transform="translate(0,0)"/>
<path d="" fill="#0080FF" transform="translate(0,0)"/>
<path d="" fill="#0080FF" transform="translate(0,0)"/>
<path d="" fill="#4080BF" transform="translate(0,0)"/>
<path d="" fill="#00FFFF" transform="translate(0,0)"/>
<path d="" fill="#00FFFF" transform="translate(0,0)"/>
<path d="" fill="#0080FF" transform="translate(0,0)"/>
<path d="" fill="#00FFFF" transform="translate(0,0)"/>
<path d="" fill="#0080FF" transform="translate(0,0)"/>
<path d="" fill="#00FFFF" transform="translate(0,0)"/>
<path d="" fill="#00FFFF" transform="translate(0,0)"/>
<path d="" fill="#00FFFF" transform="translate(0,0)"/>
<path d="" fill="#00FFFF" transform="translate(0,0)"/>
<path d="" fill="#00FFFF" transform="translate(0,0)"/>
<path d="" fill="#00FFFF" transform="translate(0,0)"/>
<path d="" fill="#00FFFF" transform="translate(0,0)"/>
<path d="" fill="#00FFFF" transform="translate(0,0)"/>
<path d="" fill="#5555AA" transform="translate(0,0)"/>
<path d="" fill="#0000FF" transform="translate(0,0)"/>
<path d="" fill="#5555AA" transform="translate(0,0)"/>
<path d="" fill="#00FFFF" transform="translate(0,0)"/>
<path d="" fill="#0000FF" transform="translate(0,0)"/>
<path d="" fill="#4080BF" transform="translate(0,0)"/>
<path d="" fill="#5555AA" transform="translate(0,0)"/>
<path d="" fill="#0080FF" transform="translate(0,0)"/>
<path d="" fill="#0080FF" transform="translate(0,0)"/>
<path d="" fill="#0000FF" transform="translate(0,0)"/>
<path d="" fill="#0000FF" transform="translate(0,0)"/>
<path d="" fill="#00FFFF" transform="translate(0,0)"/>
<path d="" fill="#55AAAA" transform="translate(0,0)"/>
<path d="" fill="#0080FF" transform="translate(0,0)"/>
<path d="" fill="#0000FF" transform="translate(0,0)"/>
<path d="" fill="#0000FF" transform="translate(0,0)"/>
<path d="" fill="#00FFFF" transform="translate(0,0)"/>
<path d="" fill="#00FFFF" transform="translate(0,0)"/>
<path d="" fill="#5555AA" transform="translate(0,0)"/>
<path d="" fill="#00FFFF" transform="translate(0,0)"/>
<path d="" fill="#0080FF" transform="translate(0,0)"/>
<path d="" fill="#0080FF" transform="translate(0,0)"/>
<path d="" fill="#0000FF" transform="translate(0,0)"/>
<path d="" fill="#0080FF" transform="translate(0,0)"/>
<path d="" fill="#0000FF" transform="translate(0,0)"/>
</svg>
